<svg id="A_4_" data-name="A (4)" xmlns="http://www.w3.org/2000/svg" width="34.14" height="34.14" viewBox="0 0 34.14 34.14">
  <path id="Path_15" data-name="Path 15" d="M11.63,11.59H45.77V45.73H11.63Z" transform="translate(-11.63 -11.59)" fill="none"/>
  <g id="Group_42" data-name="Group 42" transform="translate(0.048 0.051)">
    <path id="Path_16" data-name="Path 16" d="M29.342,12.32A17.022,17.022,0,1,1,12.32,29.342,17.022,17.022,0,0,1,29.342,12.32Z" transform="translate(-12.32 -12.32)" fill="#06cafa" fill-rule="evenodd"/>
    <path id="Path_17" data-name="Path 17" d="M176.7,143.793V130.646h3.706l.491-4.628h-4.2l.006-2.316c0-1.207.115-1.853,1.848-1.853h2.318V117.22h-3.708c-4.453,0-6.021,2.244-6.021,6.02v2.778H168.37v4.628h2.776v12.96a17.158,17.158,0,0,0,5.556.186h0Z" transform="translate(-157.469 -109.892)" fill="#111619"/>
  </g>
</svg>
