<svg xmlns="http://www.w3.org/2000/svg" width="34.14" height="34.141" viewBox="0 0 34.14 34.141">
  <path id="Path_19" data-name="Path 19" d="M23.011,28.691a5.69,5.69,0,1,1,5.69,5.691,5.69,5.69,0,0,1-5.69-5.691m-3.076,0A8.766,8.766,0,1,0,28.7,19.925a8.765,8.765,0,0,0-8.766,8.766m15.83-9.113a2.049,2.049,0,1,0,2.049-2.047,2.049,2.049,0,0,0-2.049,2.047M21.8,42.586A9.424,9.424,0,0,1,18.633,42a5.652,5.652,0,0,1-3.24-3.239,9.432,9.432,0,0,1-.587-3.17c-.082-1.8-.1-2.34-.1-6.9s.018-5.1.1-6.9a9.468,9.468,0,0,1,.587-3.17,5.649,5.649,0,0,1,3.24-3.24,9.432,9.432,0,0,1,3.17-.587c1.8-.082,2.34-.1,6.9-.1s5.1.018,6.9.1a9.468,9.468,0,0,1,3.17.587,5.65,5.65,0,0,1,3.24,3.24,9.432,9.432,0,0,1,.587,3.17c.082,1.8.1,2.34.1,6.9s-.017,5.1-.1,6.9a9.46,9.46,0,0,1-.587,3.17A5.652,5.652,0,0,1,38.769,42a9.432,9.432,0,0,1-3.17.587c-1.8.082-2.34.1-6.9.1s-5.1-.017-6.9-.1m-.14-30.862a12.516,12.516,0,0,0-4.144.793,8.73,8.73,0,0,0-4.993,4.993,12.516,12.516,0,0,0-.793,4.144c-.084,1.82-.1,2.4-.1,7.038s.02,5.218.1,7.038a12.516,12.516,0,0,0,.793,4.144,8.73,8.73,0,0,0,4.993,4.993,12.523,12.523,0,0,0,4.144.793c1.822.082,2.4.1,7.038.1s5.218-.02,7.038-.1a12.516,12.516,0,0,0,4.144-.793,8.729,8.729,0,0,0,4.993-4.993,12.48,12.48,0,0,0,.793-4.144c.082-1.822.1-2.4.1-7.038s-.02-5.218-.1-7.038a12.516,12.516,0,0,0-.793-4.144,8.732,8.732,0,0,0-4.992-4.993,12.5,12.5,0,0,0-4.144-.793c-1.82-.082-2.4-.1-7.038-.1s-5.218.02-7.039.1" transform="translate(-11.63 -11.62)" fill="#06cafa"/>
</svg>
