<svg id="A_6_" data-name="A (6)" xmlns="http://www.w3.org/2000/svg" width="34.14" height="34.143" viewBox="0 0 34.14 34.143">
  <g id="Group_43" data-name="Group 43" transform="translate(0 0.003)">
    <path id="Path_20" data-name="Path 20" d="M11.63,14.076a2.486,2.486,0,0,1,2.523-2.446H43.247a2.486,2.486,0,0,1,2.523,2.446V43.325a2.485,2.485,0,0,1-2.523,2.445H14.153a2.485,2.485,0,0,1-2.523-2.445V14.075h0Z" transform="translate(-11.63 -11.63)" fill="#06cafa"/>
    <path id="Path_21" data-name="Path 21" d="M88.11,117.319v-15.37H83v15.37h5.109ZM85.557,99.851A2.664,2.664,0,1,0,82.7,97.2a2.626,2.626,0,0,0,2.823,2.655h.034Zm5.381,17.468h5.108v-8.582a3.5,3.5,0,0,1,.168-1.246,2.8,2.8,0,0,1,2.622-1.869c1.848,0,2.588,1.41,2.588,3.476v8.222h5.108v-8.813c0-4.721-2.52-6.918-5.881-6.918a5.09,5.09,0,0,0-4.638,2.589h.034v-2.228H90.939c.066,1.442,0,15.37,0,15.37h0Z" transform="translate(-77.736 -88.749)" fill="#111619"/>
  </g>
  <path id="Path_22" data-name="Path 22" d="M11.63,11.59H45.77V45.73H11.63Z" transform="translate(-11.63 -11.59)" fill="none"/>
</svg>
