<svg id="A_3_" data-name="A (3)" xmlns="http://www.w3.org/2000/svg" width="34.14" height="34.14" viewBox="0 0 34.14 34.14">
  <path id="Path_13" data-name="Path 13" d="M11.63,11.59H45.77V45.73H11.63Z" transform="translate(-11.63 -11.59)" fill="none"/>
  <path id="Path_14" data-name="Path 14" d="M29.456,110.561l-7-.128a36.565,36.565,0,0,1-6.765-.418c-3.382-.691-3.622-4.079-3.873-6.92a48.543,48.543,0,0,1,.44-12.024,4.111,4.111,0,0,1,4.056-3.694,224.106,224.106,0,0,1,22.718-.217,16.336,16.336,0,0,1,2.385.284c3.878.68,3.973,4.519,4.224,7.751a43.934,43.934,0,0,1-.335,9.79c-.384,2.685-1.12,4.937-4.224,5.154-3.889.284-7.689.513-11.59.44,0-.017-.022-.017-.034-.017Zm-4.118-6.8c2.931-1.683,5.806-3.338,8.72-5.009-2.937-1.683-5.806-3.338-8.72-5.009Z" transform="translate(-11.629 -81.711)" fill="#06cafa"/>
</svg>
